<?xml version="1.0" encoding="UTF-8" standalone="no"?>
<!DOCTYPE svg PUBLIC "-//W3C//DTD SVG 1.1//EN"
 "http://www.w3.org/Graphics/SVG/1.1/DTD/svg11.dtd">
<!-- Generated by graphviz version 2.43.0 (0)
 -->
<!-- Title: %3 Pages: 1 -->
<svg width="1540pt" height="210pt"
 viewBox="0.00 0.00 1540.00 210.00" xmlns="http://www.w3.org/2000/svg" xmlns:xlink="http://www.w3.org/1999/xlink">
<g id="graph0" class="graph" transform="scale(1 1) rotate(0) translate(4 206)">
<title>%3</title>
<polygon fill="white" stroke="transparent" points="-4,4 -4,-206 1536,-206 1536,4 -4,4"/>
<!-- 136309056064016 -->
<g id="node1" class="node">
<title>136309056064016</title>
<polygon fill="none" stroke="black" points="326,-55.5 326,-91.5 540,-91.5 540,-55.5 326,-55.5"/>
<text text-anchor="middle" x="349.5" y="-69.8" font-family="Times,serif" font-size="14.00">x1w1</text>
<polyline fill="none" stroke="black" points="373,-55.5 373,-91.5 "/>
<text text-anchor="middle" x="415.5" y="-69.8" font-family="Times,serif" font-size="14.00">data &#45;6.0000</text>
<polyline fill="none" stroke="black" points="458,-55.5 458,-91.5 "/>
<text text-anchor="middle" x="499" y="-69.8" font-family="Times,serif" font-size="14.00">grad 0.5001</text>
</g>
<!-- 136309056071216+ -->
<g id="node4" class="node">
<title>136309056071216+</title>
<ellipse fill="none" stroke="black" cx="603" cy="-100.5" rx="27" ry="18"/>
<text text-anchor="middle" x="603" y="-96.8" font-family="Times,serif" font-size="14.00">+</text>
</g>
<!-- 136309056064016&#45;&gt;136309056071216+ -->
<g id="edge8" class="edge">
<title>136309056064016&#45;&gt;136309056071216+</title>
<path fill="none" stroke="black" d="M540.4,-90.6C549.72,-92.1 558.65,-93.53 566.68,-94.82"/>
<polygon fill="black" stroke="black" points="566.24,-98.3 576.66,-96.43 567.35,-91.39 566.24,-98.3"/>
</g>
<!-- 136309056064016* -->
<g id="node2" class="node">
<title>136309056064016*</title>
<ellipse fill="none" stroke="black" cx="263" cy="-73.5" rx="27" ry="18"/>
<text text-anchor="middle" x="263" y="-69.8" font-family="Times,serif" font-size="14.00">*</text>
</g>
<!-- 136309056064016*&#45;&gt;136309056064016 -->
<g id="edge1" class="edge">
<title>136309056064016*&#45;&gt;136309056064016</title>
<path fill="none" stroke="black" d="M290.25,-73.5C297.7,-73.5 306.34,-73.5 315.59,-73.5"/>
<polygon fill="black" stroke="black" points="315.84,-77 325.84,-73.5 315.84,-70 315.84,-77"/>
</g>
<!-- 136309056071216 -->
<g id="node3" class="node">
<title>136309056071216</title>
<polygon fill="none" stroke="black" points="666,-82.5 666,-118.5 910,-118.5 910,-82.5 666,-82.5"/>
<text text-anchor="middle" x="704.5" y="-96.8" font-family="Times,serif" font-size="14.00">x1w1x2w2</text>
<polyline fill="none" stroke="black" points="743,-82.5 743,-118.5 "/>
<text text-anchor="middle" x="785.5" y="-96.8" font-family="Times,serif" font-size="14.00">data &#45;6.0000</text>
<polyline fill="none" stroke="black" points="828,-82.5 828,-118.5 "/>
<text text-anchor="middle" x="869" y="-96.8" font-family="Times,serif" font-size="14.00">grad 0.5001</text>
</g>
<!-- 136309056073280+ -->
<g id="node6" class="node">
<title>136309056073280+</title>
<ellipse fill="none" stroke="black" cx="973" cy="-127.5" rx="27" ry="18"/>
<text text-anchor="middle" x="973" y="-123.8" font-family="Times,serif" font-size="14.00">+</text>
</g>
<!-- 136309056071216&#45;&gt;136309056073280+ -->
<g id="edge10" class="edge">
<title>136309056071216&#45;&gt;136309056073280+</title>
<path fill="none" stroke="black" d="M910.04,-118.36C919.47,-119.75 928.43,-121.07 936.46,-122.26"/>
<polygon fill="black" stroke="black" points="936.03,-125.73 946.43,-123.73 937.05,-118.81 936.03,-125.73"/>
</g>
<!-- 136309056071216+&#45;&gt;136309056071216 -->
<g id="edge2" class="edge">
<title>136309056071216+&#45;&gt;136309056071216</title>
<path fill="none" stroke="black" d="M630.22,-100.5C637.7,-100.5 646.4,-100.5 655.79,-100.5"/>
<polygon fill="black" stroke="black" points="655.8,-104 665.8,-100.5 655.8,-97 655.8,-104"/>
</g>
<!-- 136309056073280 -->
<g id="node5" class="node">
<title>136309056073280</title>
<polygon fill="none" stroke="black" points="1036,-109.5 1036,-145.5 1221,-145.5 1221,-109.5 1036,-109.5"/>
<text text-anchor="middle" x="1047.5" y="-123.8" font-family="Times,serif" font-size="14.00">n</text>
<polyline fill="none" stroke="black" points="1059,-109.5 1059,-145.5 "/>
<text text-anchor="middle" x="1099" y="-123.8" font-family="Times,serif" font-size="14.00">data 0.8813</text>
<polyline fill="none" stroke="black" points="1139,-109.5 1139,-145.5 "/>
<text text-anchor="middle" x="1180" y="-123.8" font-family="Times,serif" font-size="14.00">grad 0.5001</text>
</g>
<!-- 136309057264512tanh -->
<g id="node15" class="node">
<title>136309057264512tanh</title>
<ellipse fill="none" stroke="black" cx="1284" cy="-127.5" rx="27" ry="18"/>
<text text-anchor="middle" x="1284" y="-123.8" font-family="Times,serif" font-size="14.00">tanh</text>
</g>
<!-- 136309056073280&#45;&gt;136309057264512tanh -->
<g id="edge14" class="edge">
<title>136309056073280&#45;&gt;136309057264512tanh</title>
<path fill="none" stroke="black" d="M1221.01,-127.5C1230.01,-127.5 1238.74,-127.5 1246.66,-127.5"/>
<polygon fill="black" stroke="black" points="1246.91,-131 1256.91,-127.5 1246.91,-124 1246.91,-131"/>
</g>
<!-- 136309056073280+&#45;&gt;136309056073280 -->
<g id="edge3" class="edge">
<title>136309056073280+&#45;&gt;136309056073280</title>
<path fill="none" stroke="black" d="M1000.04,-127.5C1007.58,-127.5 1016.3,-127.5 1025.57,-127.5"/>
<polygon fill="black" stroke="black" points="1025.81,-131 1035.81,-127.5 1025.81,-124 1025.81,-131"/>
</g>
<!-- 136309086352496 -->
<g id="node7" class="node">
<title>136309086352496</title>
<polygon fill="none" stroke="black" points="2,-55.5 2,-91.5 198,-91.5 198,-55.5 2,-55.5"/>
<text text-anchor="middle" x="17" y="-69.8" font-family="Times,serif" font-size="14.00">x1</text>
<polyline fill="none" stroke="black" points="32,-55.5 32,-91.5 "/>
<text text-anchor="middle" x="72" y="-69.8" font-family="Times,serif" font-size="14.00">data 2.0000</text>
<polyline fill="none" stroke="black" points="112,-55.5 112,-91.5 "/>
<text text-anchor="middle" x="155" y="-69.8" font-family="Times,serif" font-size="14.00">grad &#45;1.5002</text>
</g>
<!-- 136309086352496&#45;&gt;136309056064016* -->
<g id="edge7" class="edge">
<title>136309086352496&#45;&gt;136309056064016*</title>
<path fill="none" stroke="black" d="M198.37,-73.5C208.05,-73.5 217.4,-73.5 225.8,-73.5"/>
<polygon fill="black" stroke="black" points="225.91,-77 235.91,-73.5 225.91,-70 225.91,-77"/>
</g>
<!-- 136309056075392 -->
<g id="node8" class="node">
<title>136309056075392</title>
<polygon fill="none" stroke="black" points="2.5,-165.5 2.5,-201.5 197.5,-201.5 197.5,-165.5 2.5,-165.5"/>
<text text-anchor="middle" x="19" y="-179.8" font-family="Times,serif" font-size="14.00">w2</text>
<polyline fill="none" stroke="black" points="35.5,-165.5 35.5,-201.5 "/>
<text text-anchor="middle" x="75.5" y="-179.8" font-family="Times,serif" font-size="14.00">data 1.0000</text>
<polyline fill="none" stroke="black" points="115.5,-165.5 115.5,-201.5 "/>
<text text-anchor="middle" x="156.5" y="-179.8" font-family="Times,serif" font-size="14.00">grad 0.0000</text>
</g>
<!-- 136309056077648* -->
<g id="node13" class="node">
<title>136309056077648*</title>
<ellipse fill="none" stroke="black" cx="263" cy="-128.5" rx="27" ry="18"/>
<text text-anchor="middle" x="263" y="-124.8" font-family="Times,serif" font-size="14.00">*</text>
</g>
<!-- 136309056075392&#45;&gt;136309056077648* -->
<g id="edge12" class="edge">
<title>136309056075392&#45;&gt;136309056077648*</title>
<path fill="none" stroke="black" d="M172.53,-165.44C181.84,-162.67 191.2,-159.67 200,-156.5 210.53,-152.71 221.75,-147.9 231.72,-143.33"/>
<polygon fill="black" stroke="black" points="233.25,-146.48 240.82,-139.07 230.28,-140.14 233.25,-146.48"/>
</g>
<!-- 136309085161184 -->
<g id="node9" class="node">
<title>136309085161184</title>
<polygon fill="none" stroke="black" points="0,-0.5 0,-36.5 200,-36.5 200,-0.5 0,-0.5"/>
<text text-anchor="middle" x="16.5" y="-14.8" font-family="Times,serif" font-size="14.00">w1</text>
<polyline fill="none" stroke="black" points="33,-0.5 33,-36.5 "/>
<text text-anchor="middle" x="75.5" y="-14.8" font-family="Times,serif" font-size="14.00">data &#45;3.0000</text>
<polyline fill="none" stroke="black" points="118,-0.5 118,-36.5 "/>
<text text-anchor="middle" x="159" y="-14.8" font-family="Times,serif" font-size="14.00">grad 1.0001</text>
</g>
<!-- 136309085161184&#45;&gt;136309056064016* -->
<g id="edge6" class="edge">
<title>136309085161184&#45;&gt;136309056064016*</title>
<path fill="none" stroke="black" d="M169.28,-36.5C179.65,-39.61 190.16,-42.98 200,-46.5 210.28,-50.17 221.28,-54.74 231.11,-59.07"/>
<polygon fill="black" stroke="black" points="229.93,-62.37 240.48,-63.27 232.79,-55.99 229.93,-62.37"/>
</g>
<!-- 136309056072416 -->
<g id="node10" class="node">
<title>136309056072416</title>
<polygon fill="none" stroke="black" points="695.5,-137.5 695.5,-173.5 880.5,-173.5 880.5,-137.5 695.5,-137.5"/>
<text text-anchor="middle" x="707" y="-151.8" font-family="Times,serif" font-size="14.00">b</text>
<polyline fill="none" stroke="black" points="718.5,-137.5 718.5,-173.5 "/>
<text text-anchor="middle" x="758.5" y="-151.8" font-family="Times,serif" font-size="14.00">data 6.8813</text>
<polyline fill="none" stroke="black" points="798.5,-137.5 798.5,-173.5 "/>
<text text-anchor="middle" x="839.5" y="-151.8" font-family="Times,serif" font-size="14.00">grad 0.5001</text>
</g>
<!-- 136309056072416&#45;&gt;136309056073280+ -->
<g id="edge11" class="edge">
<title>136309056072416&#45;&gt;136309056073280+</title>
<path fill="none" stroke="black" d="M880.77,-141.46C900.52,-138.44 920.26,-135.42 936.29,-132.96"/>
<polygon fill="black" stroke="black" points="936.9,-136.41 946.26,-131.44 935.85,-129.49 936.9,-136.41"/>
</g>
<!-- 136309095225136 -->
<g id="node11" class="node">
<title>136309095225136</title>
<polygon fill="none" stroke="black" points="4,-110.5 4,-146.5 196,-146.5 196,-110.5 4,-110.5"/>
<text text-anchor="middle" x="19" y="-124.8" font-family="Times,serif" font-size="14.00">x2</text>
<polyline fill="none" stroke="black" points="34,-110.5 34,-146.5 "/>
<text text-anchor="middle" x="74" y="-124.8" font-family="Times,serif" font-size="14.00">data 0.0000</text>
<polyline fill="none" stroke="black" points="114,-110.5 114,-146.5 "/>
<text text-anchor="middle" x="155" y="-124.8" font-family="Times,serif" font-size="14.00">grad 0.5001</text>
</g>
<!-- 136309095225136&#45;&gt;136309056077648* -->
<g id="edge13" class="edge">
<title>136309095225136&#45;&gt;136309056077648*</title>
<path fill="none" stroke="black" d="M196.05,-128.5C206.52,-128.5 216.65,-128.5 225.71,-128.5"/>
<polygon fill="black" stroke="black" points="225.79,-132 235.79,-128.5 225.79,-125 225.79,-132"/>
</g>
<!-- 136309056077648 -->
<g id="node12" class="node">
<title>136309056077648</title>
<polygon fill="none" stroke="black" points="328.5,-110.5 328.5,-146.5 537.5,-146.5 537.5,-110.5 328.5,-110.5"/>
<text text-anchor="middle" x="352" y="-124.8" font-family="Times,serif" font-size="14.00">x2w2</text>
<polyline fill="none" stroke="black" points="375.5,-110.5 375.5,-146.5 "/>
<text text-anchor="middle" x="415.5" y="-124.8" font-family="Times,serif" font-size="14.00">data 0.0000</text>
<polyline fill="none" stroke="black" points="455.5,-110.5 455.5,-146.5 "/>
<text text-anchor="middle" x="496.5" y="-124.8" font-family="Times,serif" font-size="14.00">grad 0.5001</text>
</g>
<!-- 136309056077648&#45;&gt;136309056071216+ -->
<g id="edge9" class="edge">
<title>136309056077648&#45;&gt;136309056071216+</title>
<path fill="none" stroke="black" d="M537.53,-111.25C547.8,-109.53 557.66,-107.89 566.45,-106.43"/>
<polygon fill="black" stroke="black" points="567.3,-109.83 576.59,-104.74 566.15,-102.93 567.3,-109.83"/>
</g>
<!-- 136309056077648*&#45;&gt;136309056077648 -->
<g id="edge4" class="edge">
<title>136309056077648*&#45;&gt;136309056077648</title>
<path fill="none" stroke="black" d="M290.25,-128.5C298.43,-128.5 308.03,-128.5 318.31,-128.5"/>
<polygon fill="black" stroke="black" points="318.35,-132 328.35,-128.5 318.35,-125 318.35,-132"/>
</g>
<!-- 136309057264512 -->
<g id="node14" class="node">
<title>136309057264512</title>
<polygon fill="none" stroke="black" points="1347,-109.5 1347,-145.5 1532,-145.5 1532,-109.5 1347,-109.5"/>
<text text-anchor="middle" x="1358.5" y="-123.8" font-family="Times,serif" font-size="14.00">o</text>
<polyline fill="none" stroke="black" points="1370,-109.5 1370,-145.5 "/>
<text text-anchor="middle" x="1410" y="-123.8" font-family="Times,serif" font-size="14.00">data 0.7071</text>
<polyline fill="none" stroke="black" points="1450,-109.5 1450,-145.5 "/>
<text text-anchor="middle" x="1491" y="-123.8" font-family="Times,serif" font-size="14.00">grad 1.0000</text>
</g>
<!-- 136309057264512tanh&#45;&gt;136309057264512 -->
<g id="edge5" class="edge">
<title>136309057264512tanh&#45;&gt;136309057264512</title>
<path fill="none" stroke="black" d="M1311.04,-127.5C1318.58,-127.5 1327.3,-127.5 1336.57,-127.5"/>
<polygon fill="black" stroke="black" points="1336.81,-131 1346.81,-127.5 1336.81,-124 1336.81,-131"/>
</g>
</g>
</svg>
